<svg width="26" height="32" viewBox="0 0 26 32" fill="none" xmlns="http://www.w3.org/2000/svg">
<path fill-rule="evenodd" clip-rule="evenodd" d="M5.71384 10.97C5.4165 11.6165 5.4165 12.3519 5.4165 13.8228V18.4166C5.4165 20.4594 5.4165 21.4807 6.05111 22.1153C6.63636 22.7006 7.55057 22.7461 9.2915 22.7496V17.25C9.2915 16.1454 10.1869 15.25 11.2915 15.25H14.7082C15.8127 15.25 16.7082 16.1454 16.7082 17.25V22.7496C18.4491 22.7461 19.3633 22.7006 19.9486 22.1153C20.5832 21.4807 20.5832 20.4594 20.5832 18.4166V13.8228C20.5832 12.3519 20.5832 11.6165 20.2858 10.97C19.9885 10.3236 19.4301 9.84493 18.3133 8.88768L17.23 7.9591C15.2114 6.22888 14.2021 5.36377 12.9998 5.36377C11.7976 5.36377 10.7883 6.22888 8.76969 7.9591L7.68636 8.88768C6.56957 9.84493 6.01117 10.3236 5.71384 10.97ZM14.7082 22.7499L14.7082 17.25H11.2915V22.7499H14.7082Z" fill="white"/>
<circle cx="13" cy="30" r="2" fill="white"/>
</svg>
