<svg width="24" height="24" viewBox="0 0 24 24" fill="none" xmlns="http://www.w3.org/2000/svg">
    <path fill-rule="evenodd" clip-rule="evenodd" d="M8.746 8.106c.951-.815 1.595-1.365 2.135-1.721.517-.342.834-.434 1.119-.434.285 0 .602.092 1.119.434.54.356 1.184.906 2.135 1.721l1 .857c1.1.943 1.401 1.23 1.563 1.581.162.351.183.766.183 2.215V17c0 .972-.002 1.6-.064 2.062-.059.434-.153.57-.229.646-.076.076-.212.17-.646.229-.378.05-.866.061-1.561.063V16a2 2 0 0 0-2-2h-3a2 2 0 0 0-2 2v4c-.695-.003-1.183-.014-1.561-.064-.434-.059-.57-.153-.646-.229-.076-.076-.17-.212-.229-.646C6.002 18.6 6 17.971 6 17v-4.24c0-1.45.021-1.865.183-2.216.162-.351.463-.638 1.563-1.58l1-.858zM9.49 22h5.577c.886 0 1.65 0 2.262-.082.655-.088 1.284-.287 1.793-.797.51-.51.709-1.138.797-1.793.082-.612.082-1.376.082-2.262V12.57c.001-1.171.002-2.062-.366-2.862-.368-.8-1.044-1.378-1.935-2.14l-.143-.123-1-.857-.049-.042c-.89-.763-1.629-1.396-2.286-1.83-.693-.458-1.396-.765-2.221-.765-.825 0-1.528.307-2.22.765-.658.434-1.397 1.067-2.287 1.83l-.049.042-1 .857-.143.123c-.89.762-1.567 1.34-1.935 2.14-.368.8-.367 1.69-.366 2.863v4.495c0 .886 0 1.65.082 2.262.088.655.287 1.284.797 1.793.51.51 1.138.709 1.793.797C7.284 22 8.048 22 8.934 22H9.49zm4.011-2h-3v-4h3v4z" fill="#686868"/>
</svg>
