<svg width="22" height="22" viewBox="0 0 22 22" fill="none" xmlns="http://www.w3.org/2000/svg">
    <path fill-rule="evenodd" clip-rule="evenodd" d="M11.793 3.077a.581.581 0 0 1-.585.577.581.581 0 0 1-.585-.577c0-.319.262-.577.585-.577.323 0 .585.258.585.577zM2.42 8.227H20v1.156H2.42V8.227zm3.517 1.156H3.592v8.627h2.345V9.383zm12.83 0h-2.344v8.627h2.345V9.383zm-3.683.004H7.332v8.62h.945v-4.299c0-.511.422-.927.94-.927H13.2c.52 0 .939.416.939.928v4.298h.946v-8.62zm-5.668 8.62h3.585v-4.105H9.416v4.105zm2.674-6.728a.873.873 0 0 1-.879.866.873.873 0 0 1-.879-.866c0-.479.394-.867.88-.867.484 0 .878.388.878.867zm7.49 7.065H2V19.5h17.58v-1.156zM2.42 7.057H20l-1.828-2.56h-2.941L13.886 6.38l-2.141-2.724h-1.069l-2.21 2.631-1.277-1.79H4.247L2.42 7.056z" fill="#B0B0B0"/>
</svg>
