<svg width="22" height="22" viewBox="0 0 22 22" fill="none" xmlns="http://www.w3.org/2000/svg">
    <path fill-rule="evenodd" clip-rule="evenodd" d="M16.186 16.947V7.568l1.513-1.02v2.313l.705-.713V6.073l1.513-1.02v9.379l-3.731 2.515zm1.947-11.294 1.216-.82H6.14l-1.216.82h13.208zM3.42 6.366l-1.216.82-.37.25v9.98h14.102l.25-.168 3.98-2.683V4.584H6.065l-1.929 1.3-.72.482h.005zm.447 0h13.208l-1.215.82H2.652l1.215-.82zm-1.784 1.32h13.603v9.48H2.084v-9.48z" fill="#B0B0B0"/>
    <path d="m16.186 7.568-.14-.207-.11.074v.133h.25zm0 9.379h-.25v.47l.39-.263-.14-.207zm1.513-10.399h.25v-.47l-.39.263.14.207zm0 2.313h-.25v.609l.428-.433-.178-.176zm.705-.713.178.176.072-.073v-.103h-.25zm0-2.075-.14-.207-.11.074v.133h.25zm1.513-1.02h.25v-.47l-.39.263.14.208zm0 9.379.14.207.11-.074v-.133h-.25zm-.568-9.598.14.207.678-.458h-.818v.25zm-1.216.819v.25h.076l.064-.043-.14-.207zm-11.992-.82v-.25h-.077l-.063.043.14.207zm-1.216.82-.14-.207-.678.457h.818v-.25zm-1.505.713.14.207.678-.457H3.42v.25zm-1.216.82-.14-.208.14.207zm-.37.25-.14-.208-.11.074v.133h.25zm0 9.98h-.25v.25h.25v-.25zm14.102 0v.25h.25v-.25h-.25zm0 0-.14-.207-.11.075v.133h.25zm.25-.168-.14-.207.14.207zm3.98-2.683.14.207.11-.074v-.133h-.25zm0-9.982h.25v-.25h-.25v.25zm-14.102 0v-.25h-.076l-.063.043.14.207zm-1.929 1.3.14.208-.14-.207zm-.72.483-.14-.208-.684.458h.823v-.25zm13.66 0 .14.207.678-.457h-.818v.25zm-13.208 0v-.25h-.076l-.063.043.14.207zm11.993.82v.25h.076L16 7.392l-.14-.208zm-13.208 0-.14-.208-.679.457h.819v-.25zm13.034.5h.25v-.25h-.25v.25zm-13.602 0v-.25h-.25v.25h.25zm13.602 9.48v.25h.25v-.25h-.25zm-13.602 0h-.25v.25h.25v-.25zm13.852-9.598v9.379h.5V7.568h-.5zm1.623-1.227-1.513 1.02.28.415 1.513-1.02-.28-.415zm.39 2.52V6.548h-.5v2.313h.5zm.277-.889-.705.713.356.352.705-.713-.356-.352zm-.072-1.899v2.075h.5V6.073h-.5zm1.623-1.227-1.513 1.02.28.414 1.513-1.02-.28-.414zm.39 9.586V5.054h-.5v9.378h.5zm-3.841 2.722 3.73-2.515-.279-.414-3.73 2.514.279.415zm2.883-12.528-1.216.82.28.414 1.215-.82-.28-.414zM6.14 5.083h13.208v-.5H6.14v.5zm-1.076.777 1.215-.82L6 4.627l-1.215.82.28.414zm-.14.043h13.208v-.5H4.925v.5zm-1.645.256-1.215.819.28.415 1.215-.82-.28-.414zm-1.215.819-.371.25.28.415.37-.25-.28-.415zm-.482.457v.25h.5v-.25h-.5zm0 .25v9.482h.5V7.685h-.5zm0 9.482v.25h.5v-.25h-.5zm.25.5h.25v-.5h-.25v.5zm.25 0h13.603v-.5H2.084v.5zm13.603 0h.25v-.5h-.25v.5zm.5-.25h-.5.5zm-.11.207.25-.168-.28-.415-.25.168.28.415zm.25-.168 3.98-2.684-.279-.414-3.98 2.683.279.415zm4.09-2.891v-9.68h-.5v9.68h.5zm0-9.68v-.301h-.5v.301h.5zm-.25-.551h-.446v.5h.447v-.5zm-.446 0H6.064v.5H19.72v-.5zm-13.795.042-1.93 1.3.28.415 1.929-1.3-.28-.415zM3.553 6.574l.721-.483-.278-.415-.72.482.277.416zm-.133-.458h-.006v.5h.006v-.5zm13.655 0H3.867v.5h13.208v-.5zm-.14.043-1.215.819.28.415 1.215-.82-.28-.414zm-1.075.776H2.652v.5H15.86v-.5zM2.79 7.393l1.216-.82-.28-.414-1.215.819.28.415zm12.895.042H2.084v.5h13.602v-.5zm.25 9.732V7.685h-.5v9.482h.5zm-13.852.25h13.602v-.5H2.084v.5zm-.25-9.732v9.482h.5V7.685h-.5z" fill="#B0B0B0"/>
</svg>
