<svg width="22" height="23" viewBox="0 0 22 23" fill="none" xmlns="http://www.w3.org/2000/svg">
<path fill-rule="evenodd" clip-rule="evenodd" d="M11.0002 19.2918C15.3034 19.2918 18.7918 15.8034 18.7918 11.5002C18.7918 7.19694 15.3034 3.7085 11.0002 3.7085C6.69694 3.7085 3.2085 7.19694 3.2085 11.5002C3.2085 15.8034 6.69694 19.2918 11.0002 19.2918ZM11.0002 20.6668C16.0628 20.6668 20.1668 16.5628 20.1668 11.5002C20.1668 6.43755 16.0628 2.3335 11.0002 2.3335C5.93755 2.3335 1.8335 6.43755 1.8335 11.5002C1.8335 16.5628 5.93755 20.6668 11.0002 20.6668ZM11.2376 12.3858C11.1619 12.406 11.0823 12.4168 11.0002 12.4168C10.4939 12.4168 10.0835 12.0064 10.0835 11.5002C10.0835 11.1609 10.2678 10.8646 10.5418 10.7061V5.0835H11.4585V10.7061C11.7325 10.8646 11.9168 11.1609 11.9168 11.5002C11.9168 11.5823 11.906 11.6619 11.8858 11.7376L14.5326 14.3844L13.8844 15.0326L11.2376 12.3858Z" fill="white"/>
</svg>
