<svg width="24" height="24" viewBox="0 0 24 24" fill="none" xmlns="http://www.w3.org/2000/svg">
    <path d="M21 16.695V5.665a.45.45 0 0 0-.617-.418l-4.248 1.699a.45.45 0 0 1-.276.019L8.14 5.035a.45.45 0 0 0-.276.019L3.283 6.887A.45.45 0 0 0 3 7.305v11.03a.45.45 0 0 0 .617.418l4.248-1.699a.45.45 0 0 1 .276-.019l7.718 1.93a.45.45 0 0 0 .276-.019l4.582-1.833a.45.45 0 0 0 .283-.418z" stroke="#686868" stroke-width="2" stroke-linejoin="round"/>
    <path d="M16 19V7M8 17V5" stroke="#686868" stroke-width="2"/>
</svg>
