<svg width="24" height="24" viewBox="0 0 24 24" fill="none" xmlns="http://www.w3.org/2000/svg">
    <path fill-rule="evenodd" clip-rule="evenodd" d="M10.927 2h2.146c1.824 0 3.293 0 4.45.155 1.2.162 2.21.507 3.012 1.31.803.802 1.148 1.813 1.31 3.013C22 7.634 22 9.103 22 10.927v2.146c0 1.824 0 3.293-.155 4.45-.162 1.2-.507 2.21-1.31 3.012-.802.803-1.813 1.148-3.013 1.31-1.156.155-2.625.155-4.449.155H12v-2h1c1.914 0 3.249-.002 4.256-.137.978-.132 1.496-.373 1.865-.742.37-.369.61-.887.742-1.865.135-1.007.137-2.342.137-4.256v-2c0-1.914-.002-3.249-.137-4.256-.132-.978-.373-1.496-.742-1.865-.369-.37-.887-.61-1.865-.741C16.249 4.002 14.914 4 13 4h-2c-1.914 0-3.249.002-4.256.138-.978.131-1.496.372-1.865.74-.37.37-.61.888-.741 1.866C4.002 7.751 4 9.086 4 11v2H2v-2.073c0-1.824 0-3.293.155-4.45.162-1.2.507-2.21 1.31-3.013.802-.802 1.813-1.147 3.013-1.309C7.634 2 9.103 2 10.927 2z" fill="#fff"/>
    <circle cx="16.5" cy="7.5" r="1.5" fill="#fff"/>
    <path fill-rule="evenodd" clip-rule="evenodd" d="M9 15H3v2h2.15l-2.775 2.22a1 1 0 0 0 1.25 1.56L7 18.08V21h2v-6zM6.35 8.24a1 1 0 0 1 1.41.11l4.975 5.805.041.047.003.004.002-.004.028-.056.01-.019c.04-.08.074-.148.105-.205a3 3 0 0 1 4.654-.755c.047.044.1.097.164.161l1.965 1.965-1.414 1.414-1.95-1.95a5.445 5.445 0 0 0-.119-.117 1 1 0 0 0-1.55.252c-.008.013-.021.039-.076.148l-.006.012a2 2 0 0 1-3.366.414l-.01-.01-4.975-5.805a1 1 0 0 1 .108-1.41z" fill="#fff"/>
</svg>
