<svg width="20" height="20" viewBox="0 0 20 20" fill="none" xmlns="http://www.w3.org/2000/svg">
<circle cx="10" cy="10" r="7.5" stroke="#818181" stroke-width="2"/>
<path fill-rule="evenodd" clip-rule="evenodd" d="M8.99992 14.1663C8.99992 14.7186 9.44763 15.1663 9.99992 15.1663C10.5522 15.1663 10.9999 14.7186 10.9999 14.1663V10.9997H14.1666C14.7189 10.9997 15.1666 10.552 15.1666 9.99967C15.1666 9.44739 14.7189 8.99967 14.1666 8.99967H10.9999V5.83301C10.9999 5.28072 10.5522 4.83301 9.99992 4.83301C9.44763 4.83301 8.99992 5.28072 8.99992 5.83301V8.99967H5.83325C5.28097 8.99967 4.83325 9.44739 4.83325 9.99967C4.83325 10.552 5.28097 10.9997 5.83325 10.9997H8.99992V14.1663Z" fill="#818181"/>
</svg>
