<svg width="24" height="24" viewBox="0 0 24 24" fill="none" xmlns="http://www.w3.org/2000/svg">
    <path fill-rule="evenodd" clip-rule="evenodd" d="M7 4.851c-1.3.128-2.175.417-2.828 1.07C3 7.094 3 8.98 3 12.75s0 5.657 1.172 6.828C5.343 20.75 7.229 20.75 11 20.75h2c3.771 0 5.657 0 6.828-1.172C21 18.407 21 16.521 21 12.75c0-3.771 0-5.657-1.172-6.828-.653-.654-1.528-.943-2.828-1.07V7.25a1.5 1.5 0 0 1-3 0v-2.5h-4v2.5a1.5 1.5 0 1 1-3 0V4.851z" fill="#818181"/>
    <path d="M8.5 3.25v4M15.5 3.25v4" stroke="#818181" stroke-linecap="round"/>
    <circle cx="7.5" cy="11.25" r=".5" fill="#fff"/>
    <circle cx="10.5" cy="11.25" r=".5" fill="#fff"/>
    <circle cx="13.5" cy="11.25" r=".5" fill="#fff"/>
    <circle cx="16.5" cy="11.25" r=".5" fill="#fff"/>
    <circle cx="7.5" cy="14.25" r=".5" fill="#fff"/>
    <circle cx="10.5" cy="14.25" r=".5" fill="#fff"/>
    <circle cx="13.5" cy="14.25" r=".5" fill="#fff"/>
    <circle cx="16.5" cy="14.25" r=".5" fill="#fff"/>
    <circle cx="7.5" cy="17.25" r=".5" fill="#fff"/>
    <circle cx="10.5" cy="17.25" r=".5" fill="#fff"/>
    <circle cx="13.5" cy="17.25" r=".5" fill="#fff"/>
    <circle cx="16.5" cy="17.25" r=".5" fill="#fff"/>
</svg>
