<svg width="20" height="20" viewBox="0 0 20 20" fill="none" xmlns="http://www.w3.org/2000/svg">
    <path d="M6.804 4.146a8.074 8.074 0 0 1 4.895-.48A7.739 7.739 0 0 1 15.893 6.1a6.998 6.998 0 0 1 1.757 4.34 6.941 6.941 0 0 1-1.404 4.452c-.974 1.298-2.375 2.256-3.985 2.726-1.61.47-3.34.425-4.92-.128-1.58-.552-2.924-1.582-3.821-2.928a6.908 6.908 0 0 1-1.143-4.519" stroke="#818181" stroke-width="2" stroke-linecap="round"/>
    <path d="M10 6.583v5.083a.25.25 0 0 0 .046.144l2.141 3.032" stroke="#818181" stroke-width="2" stroke-linecap="round"/>
    <path d="m4.56 5.327.437-3.294a.25.25 0 0 1 .448-.116l3.053 4.117a.25.25 0 0 1-.258.392l-3.489-.823a.25.25 0 0 1-.19-.276z" fill="#818181"/>
</svg>
