<svg width="24" height="24" viewBox="0 0 24 24" fill="none" xmlns="http://www.w3.org/2000/svg">
    <mask id="tqwk4gquna" fill="#fff">
        <path d="M2 9.5V6.167c0-1.841 1.628-3.334 3.636-3.334H12V4.5H5.636c-1.004 0-1.818.746-1.818 1.667V9.5H2zM2 14.5v3.333c0 1.841 1.628 3.334 3.636 3.334H12V19.5H5.636c-1.004 0-1.818-.746-1.818-1.667V14.5H2z"/>
    </mask>
    <path d="M2 9.5H0v2h2v-2zm10-6.667h2v-2h-2v2zM12 4.5v2h2v-2h-2zm-8.182 5v2h2v-2h-2zM2 14.5v-2H0v2h2zm10 6.667v2h2v-2h-2zm0-1.667h2v-2h-2v2zm-8.182-5h2v-2h-2v2zM0 6.167V9.5h4V6.167H0zM5.636.833C2.691.833 0 3.061 0 6.167h4c0-.576.565-1.334 1.636-1.334v-4zm6.364 0H5.636v4H12v-4zM14 4.5V2.833h-4V4.5h4zm-8.364 2H12v-4H5.636v4zm.182-.333a.41.41 0 0 1-.116.295c-.042.04-.07.038-.066.038v-4c-1.941 0-3.818 1.481-3.818 3.667h4zm0 3.333V6.167h-4V9.5h4zM2 11.5h1.818v-4H2v4zm-2 3v3.333h4V14.5H0zm0 3.333c0 3.106 2.69 5.334 5.636 5.334v-4c-1.07 0-1.636-.758-1.636-1.334H0zm5.636 5.334H12v-4H5.636v4zm8.364-2V19.5h-4v1.667h4zM12 17.5H5.636v4H12v-4zm-6.364 0c-.004 0 .024-.001.066.038a.41.41 0 0 1 .116.295h-4c0 2.186 1.877 3.667 3.818 3.667v-4zm.182.333V14.5h-4v3.333h4zm-2-5.333H2v4h1.818v-4z" fill="#000" mask="url(#tqwk4gquna)"/>
    <path d="m2.91 12 1.298-1.666M2.909 12l1.299 1.667M2.909 12h4.546" stroke="#000" stroke-width=".9" stroke-linecap="round"/>
    <path d="M11.182 5.219a2 2 0 0 1 2.14-1.995l5.819.41A2 2 0 0 1 21 5.63v12.742a2 2 0 0 1-1.86 1.995l-5.818.41a2 2 0 0 1-2.14-1.995V5.219z" stroke="#000" stroke-width="2"/>
    <rect x="13.818" y="8.666" width="1" height="6.667" rx=".5" fill="#000"/>
</svg>
