<svg width="24" height="24" viewBox="0 0 24 24" fill="none" xmlns="http://www.w3.org/2000/svg">
    <path fill-rule="evenodd" clip-rule="evenodd" d="M5 4a3 3 0 0 0-3 3v6a3 3 0 0 0 3 3h3.96l2.64 4 2.64-4H19a3 3 0 0 0 3-3V7a3 3 0 0 0-3-3H5zm1.912 3.527c.292-.751.437-1.127.688-1.127.251 0 .397.376.689 1.127l.014.035c.164.425.247.637.415.766.168.129.388.15.83.19l.08.008c.721.066 1.082.1 1.16.337.077.237-.191.489-.728.993l-.179.168c-.27.255-.407.382-.47.55a.788.788 0 0 0-.03.095c-.04.174-.001.359.078.729l.025.115c.146.68.22 1.02.092 1.166a.37.37 0 0 1-.179.114c-.184.052-.445-.168-.968-.608-.343-.289-.515-.433-.712-.466a.718.718 0 0 0-.234 0c-.197.033-.368.177-.711.466-.523.44-.785.66-.969.608a.37.37 0 0 1-.178-.114c-.127-.146-.054-.486.092-1.166l.024-.115c.08-.37.12-.555.078-.73a.788.788 0 0 0-.03-.095c-.063-.167-.198-.294-.47-.55l-.179-.167c-.536-.504-.804-.756-.727-.993.078-.237.439-.27 1.16-.337l.08-.008c.441-.04.662-.061.83-.19.168-.129.25-.341.415-.766l.014-.035zM13.6 8a.4.4 0 0 0 0 .8h5.6a.4.4 0 0 0 0-.8h-5.6zm-.4 2c0-.221.18-.4.4-.4h5.6a.4.4 0 1 1 0 .8h-5.6a.4.4 0 0 1-.4-.4zm3.6 1.2a.4.4 0 0 0 0 .8h2.4a.4.4 0 1 0 0-.8h-2.4z" fill="#818181"/>
</svg>
