<svg width="328" height="136" viewBox="0 0 328 136" fill="none" xmlns="http://www.w3.org/2000/svg">
    <mask id="200r6dhdca" style="mask-type:alpha" maskUnits="userSpaceOnUse" x="0" y="0" width="328" height="136">
        <rect width="328" height="136" rx="16" fill="#D9D9D9"/>
    </mask>
    <g mask="url(#200r6dhdca)">
        <path d="M153.216-39.964c-29.984-27.74-73.14-33.594-104.34-33.253V62.871H382.86c-56.875-86.36-115.374-2.123-182.078-36.837-29.096-15.142-21-41.419-47.567-65.998z" fill="#FFD198"/>
        <path d="M147.106-30.823c-29.983-27.74-73.14-33.594-104.34-33.253V72.012h333.986c-56.876-86.36-115.375-2.123-182.079-36.837-29.095-15.142-20.999-41.419-47.567-65.998z" fill="#FFC67D"/>
        <path d="M140.997-21.681c-29.984-27.74-73.14-33.595-104.34-33.254V81.153h333.985c-56.875-86.36-115.374-2.122-182.078-36.837-29.096-15.142-21-41.418-47.567-65.997z" fill="#FFB962"/>
        <path d="M134.887-12.54c-29.983-27.74-73.14-33.595-104.34-33.254V90.294h333.986c-56.876-86.36-115.375-2.122-182.079-36.837-29.095-15.142-20.999-41.418-47.567-65.997z" fill="#F3A038"/>
        <path d="M128.778-3.4c-29.984-27.739-73.14-33.593-104.34-33.252V99.435h333.985c-56.875-86.359-115.374-2.122-182.078-36.837-29.096-15.142-21-41.418-47.567-65.997z" fill="#EF921D"/>
        <path d="M122.668 5.742c-29.983-27.74-73.14-33.594-104.34-33.253v136.088h333.986c-56.876-86.36-115.375-2.123-182.079-36.837-29.095-15.142-20.999-41.419-47.567-65.998z" fill="#E99730"/>
        <path d="M116.559 14.883C86.575-12.857 43.419-18.71 12.219-18.37v136.088h333.985c-56.875-86.36-115.374-2.122-182.078-36.837-29.096-15.142-21-41.419-47.567-65.998z" fill="#F0992B"/>
        <path d="M110.449 24.024C80.466-3.716 37.309-9.57 6.109-9.229V126.86h333.986c-56.876-86.36-115.375-2.122-182.079-36.837-29.095-15.142-20.999-41.419-47.567-65.998z" fill="#EF8F15"/>
        <path d="M104.34 33.165C74.356 5.425 31.2-.429 0-.088V136h333.985c-56.875-86.36-115.374-2.122-182.078-36.837-29.096-15.142-21-41.419-47.567-65.998z" fill="#EE8500"/>
    </g>
    <path d="M17.28 33V21.48h1.672v9.944h5.216V33H17.28zm12.158.24c-.858 0-1.613-.187-2.264-.56a3.983 3.983 0 0 1-1.512-1.576c-.357-.677-.536-1.461-.536-2.352 0-.944.176-1.763.528-2.456a3.912 3.912 0 0 1 1.488-1.608c.635-.379 1.374-.568 2.216-.568.88 0 1.63.205 2.248.616.619.405 1.08.984 1.384 1.736.31.752.432 1.645.368 2.68h-1.672v-.608c-.01-1.003-.202-1.744-.576-2.224-.368-.48-.93-.72-1.688-.72-.837 0-1.466.264-1.888.792-.421.528-.632 1.29-.632 2.288 0 .95.21 1.685.632 2.208.422.517 1.03.776 1.824.776.523 0 .974-.117 1.352-.352.384-.24.683-.581.896-1.024l1.64.52c-.336.773-.845 1.373-1.528 1.8a4.255 4.255 0 0 1-2.28.632zm-3.08-4.088v-1.304h6.168v1.304h-6.168zM40.178 33a7.156 7.156 0 0 1-1.6.136 3.62 3.62 0 0 1-1.4-.304c-.411-.187-.72-.48-.929-.88a2.574 2.574 0 0 1-.304-1.088c-.01-.373-.016-.795-.016-1.264v-7.64h1.68v7.56c0 .347.003.648.008.904.01.256.067.472.168.648.192.33.496.52.912.568.421.043.915.024 1.48-.056V33zm-5.905-7.296V24.36h5.904v1.344h-5.904zM45.362 33V21.48h1.512l4.176 8.664 4.152-8.664h1.528v11.512h-1.584v-7.88L51.426 33h-.76l-3.728-7.888V33h-1.576zm17.441.24c-.864 0-1.613-.195-2.248-.584a3.935 3.935 0 0 1-1.472-1.608c-.341-.688-.512-1.48-.512-2.376 0-.901.176-1.693.528-2.376a3.87 3.87 0 0 1 1.48-1.6c.635-.384 1.376-.576 2.224-.576.864 0 1.614.195 2.248.584.635.39 1.126.925 1.472 1.608.347.683.52 1.47.52 2.36 0 .901-.176 1.696-.528 2.384a3.936 3.936 0 0 1-1.472 1.608c-.634.384-1.381.576-2.24.576zm0-1.576c.827 0 1.443-.277 1.848-.832.41-.56.616-1.28.616-2.16 0-.901-.208-1.621-.624-2.16-.41-.544-1.024-.816-1.84-.816-.56 0-1.021.128-1.384.384-.362.25-.632.6-.808 1.048-.176.443-.264.957-.264 1.544 0 .907.208 1.632.624 2.176.416.544 1.027.816 1.832.816zM74.945 33v-4.248c0-.336-.03-.68-.088-1.032a3.095 3.095 0 0 0-.32-.992 1.879 1.879 0 0 0-.664-.736c-.282-.187-.653-.28-1.112-.28-.298 0-.581.05-.848.152a1.767 1.767 0 0 0-.704.472c-.197.219-.354.507-.472.864-.112.357-.168.792-.168 1.304l-1.04-.392c0-.784.147-1.475.44-2.072a3.306 3.306 0 0 1 1.264-1.408c.55-.336 1.214-.504 1.992-.504.598 0 1.099.096 1.504.288.406.192.734.445.984.76.256.31.45.648.584 1.016.134.368.224.728.272 1.08.048.352.072.661.072.928V33h-1.696zm-6.072 0v-8.64h1.496v2.496h.2V33h-1.696zm12.372.24c-.64 0-1.176-.117-1.608-.352a2.508 2.508 0 0 1-.984-.944 2.63 2.63 0 0 1-.328-1.296c0-.437.077-.821.232-1.152.155-.33.384-.61.688-.84a3.678 3.678 0 0 1 1.12-.568c.384-.112.819-.21 1.304-.296.485-.085.995-.165 1.528-.24l1.6-.224-.608.336c.01-.677-.133-1.179-.432-1.504-.293-.33-.8-.496-1.52-.496a2.5 2.5 0 0 0-1.248.32c-.379.208-.643.555-.792 1.04l-1.56-.48c.213-.741.619-1.33 1.216-1.768.603-.437 1.403-.656 2.4-.656.773 0 1.445.133 2.016.4.576.261.997.677 1.264 1.248.139.283.224.581.256.896.032.315.048.653.048 1.016V33h-1.48v-1.976l.288.256c-.357.661-.813 1.155-1.368 1.48-.55.32-1.227.48-2.032.48zm.296-1.368c.475 0 .883-.083 1.224-.248a2.41 2.41 0 0 0 .824-.648c.208-.261.344-.533.408-.816.09-.256.141-.544.152-.864.016-.32.024-.576.024-.768l.544.2-1.44.216c-.432.064-.824.128-1.176.192-.347.059-.656.13-.928.216-.23.08-.435.176-.616.288a1.411 1.411 0 0 0-.424.408 1.07 1.07 0 0 0-.152.584c0 .224.056.432.168.624.112.187.283.336.512.448.23.112.523.168.88.168zm9.757 1.36c-1.05 0-1.906-.232-2.568-.696-.661-.464-1.066-1.117-1.216-1.96l1.712-.264c.107.448.352.803.736 1.064.39.256.872.384 1.448.384.523 0 .931-.107 1.224-.32.299-.213.448-.507.448-.88 0-.219-.053-.395-.16-.528-.101-.139-.317-.27-.648-.392-.33-.123-.834-.275-1.512-.456-.741-.192-1.33-.397-1.768-.616-.432-.224-.741-.483-.928-.776-.181-.299-.272-.659-.272-1.08 0-.523.139-.979.416-1.368.278-.39.667-.69 1.168-.904.507-.213 1.099-.32 1.776-.32.662 0 1.251.104 1.768.312.518.208.936.504 1.256.888.32.379.512.824.576 1.336l-1.712.312a1.41 1.41 0 0 0-.584-.984c-.33-.24-.76-.37-1.288-.392-.506-.021-.917.064-1.232.256-.314.187-.472.445-.472.776 0 .192.059.355.176.488.123.133.358.261.704.384.347.123.859.27 1.536.44.726.187 1.302.395 1.728.624.427.224.731.493.912.808.187.31.28.685.28 1.128 0 .853-.312 1.523-.936 2.008-.618.485-1.474.728-2.568.728zm9.411.008c-.827 0-1.52-.2-2.08-.6-.56-.405-.985-.952-1.273-1.64-.287-.688-.431-1.464-.431-2.328 0-.864.14-1.64.424-2.328.287-.688.709-1.23 1.263-1.624.56-.4 1.249-.6 2.065-.6.81 0 1.509.2 2.096.6a3.86 3.86 0 0 1 1.368 1.624c.32.683.48 1.459.48 2.328 0 .864-.16 1.643-.48 2.336a3.888 3.888 0 0 1-1.352 1.632c-.582.4-1.275.6-2.08.6zM96.644 33V21.48h1.68v5.304h-.192V33h-1.488zm3.833-1.272c.533 0 .973-.136 1.32-.408.352-.272.613-.637.784-1.096.176-.464.264-.981.264-1.552 0-.565-.088-1.077-.264-1.536a2.39 2.39 0 0 0-.792-1.096c-.358-.272-.814-.408-1.368-.408-.523 0-.955.128-1.297.384-.335.256-.586.613-.751 1.072-.16.459-.24.987-.24 1.584 0 .597.08 1.125.24 1.584.16.459.413.819.76 1.08.346.261.794.392 1.344.392zm8.43 1.512c-.64 0-1.176-.117-1.608-.352a2.508 2.508 0 0 1-.984-.944 2.626 2.626 0 0 1-.328-1.296c0-.437.077-.821.232-1.152.155-.33.384-.61.688-.84a3.675 3.675 0 0 1 1.12-.568c.384-.112.819-.21 1.304-.296.485-.085.995-.165 1.528-.24l1.6-.224-.608.336c.011-.677-.133-1.179-.432-1.504-.293-.33-.8-.496-1.52-.496-.453 0-.869.107-1.248.32-.379.208-.643.555-.792 1.04l-1.56-.48a3.232 3.232 0 0 1 1.216-1.768c.603-.437 1.403-.656 2.4-.656.773 0 1.445.133 2.016.4.576.261.997.677 1.264 1.248.139.283.224.581.256.896.032.315.048.653.048 1.016V33h-1.48v-1.976l.288.256c-.357.661-.813 1.155-1.368 1.48-.549.32-1.227.48-2.032.48zm.296-1.368c.475 0 .883-.083 1.224-.248.341-.17.616-.387.824-.648.208-.261.344-.533.408-.816.091-.256.141-.544.152-.864.016-.32.024-.576.024-.768l.544.2-1.44.216c-.432.064-.824.128-1.176.192a7.04 7.04 0 0 0-.928.216c-.229.08-.435.176-.616.288a1.415 1.415 0 0 0-.424.408c-.101.16-.152.355-.152.584 0 .224.056.432.168.624.112.187.283.336.512.448.229.112.523.168.88.168zM115.944 33v-1.768h1.768V33h-1.768zm3.57 0 3.744-11.52h2.408L129.41 33h-1.736l-3.448-10.512h.432L121.25 33h-1.736zm1.944-2.6v-1.568h6.016V30.4h-6.016zm9.628 2.6V21.48h1.672V33h-1.672zm13.501 0v-4.248c0-.336-.029-.68-.088-1.032a3.086 3.086 0 0 0-.32-.992 1.88 1.88 0 0 0-.664-.736c-.283-.187-.653-.28-1.112-.28-.299 0-.581.05-.848.152a1.766 1.766 0 0 0-.704.472 2.38 2.38 0 0 0-.472.864c-.112.357-.168.792-.168 1.304l-1.04-.392c0-.784.147-1.475.44-2.072a3.306 3.306 0 0 1 1.264-1.408c.549-.336 1.213-.504 1.992-.504.597 0 1.099.096 1.504.288.405.192.733.445.984.76.256.31.451.648.584 1.016.133.368.224.728.272 1.08.048.352.072.661.072.928V33h-1.696zm-6.072 0V21.48h1.496v6.216h.2V33h-1.696zm13.764.24c-.859 0-1.613-.187-2.264-.56a3.987 3.987 0 0 1-1.512-1.576c-.357-.677-.536-1.461-.536-2.352 0-.944.176-1.763.528-2.456a3.908 3.908 0 0 1 1.488-1.608c.635-.379 1.373-.568 2.216-.568.88 0 1.629.205 2.248.616.619.405 1.08.984 1.384 1.736.309.752.432 1.645.368 2.68h-1.672v-.608c-.011-1.003-.203-1.744-.576-2.224-.368-.48-.931-.72-1.688-.72-.837 0-1.467.264-1.888.792-.421.528-.632 1.29-.632 2.288 0 .95.211 1.685.632 2.208.421.517 1.029.776 1.824.776.523 0 .973-.117 1.352-.352.384-.24.683-.581.896-1.024l1.64.52c-.336.773-.845 1.373-1.528 1.8a4.256 4.256 0 0 1-2.28.632zm-3.08-4.088v-1.304h6.168v1.304h-6.168zM158.234 33V21.24h1.672V33h-1.672zm8.21.24c-.827 0-1.52-.2-2.08-.6-.56-.405-.984-.952-1.272-1.64-.288-.688-.432-1.464-.432-2.328 0-.864.141-1.64.424-2.328.288-.688.709-1.23 1.264-1.624.56-.4 1.248-.6 2.064-.6.811 0 1.509.2 2.096.6a3.86 3.86 0 0 1 1.368 1.624c.32.683.48 1.459.48 2.328 0 .864-.16 1.643-.48 2.336a3.88 3.88 0 0 1-1.352 1.632c-.581.4-1.275.6-2.08.6zm-4.064 3.6V24.36h1.488v6.216h.192v6.264h-1.68zm3.832-5.112c.533 0 .973-.136 1.32-.408.352-.272.613-.637.784-1.096.176-.464.264-.981.264-1.552 0-.565-.088-1.077-.264-1.536a2.39 2.39 0 0 0-.792-1.096c-.357-.272-.813-.408-1.368-.408-.523 0-.955.128-1.296.384-.336.256-.587.613-.752 1.072-.16.459-.24.987-.24 1.584 0 .597.08 1.125.24 1.584.16.459.413.819.76 1.08.347.261.795.392 1.344.392zM18.288 58.84l1.672-4.552.024 1.344-3.768-9.272h1.744l2.816 7.16h-.512l2.688-7.16h1.696L19.88 58.84h-1.592zm11.133-3.6c-.864 0-1.614-.195-2.248-.584a3.936 3.936 0 0 1-1.472-1.608c-.342-.688-.512-1.48-.512-2.376 0-.901.176-1.693.528-2.376a3.87 3.87 0 0 1 1.48-1.6c.634-.384 1.376-.576 2.224-.576.864 0 1.613.195 2.248.584.634.39 1.125.925 1.472 1.608.346.683.52 1.47.52 2.36 0 .901-.176 1.696-.528 2.384a3.936 3.936 0 0 1-1.472 1.608c-.635.384-1.382.576-2.24.576zm0-1.576c.826 0 1.442-.277 1.848-.832.41-.56.616-1.28.616-2.16 0-.901-.208-1.621-.624-2.16-.41-.544-1.024-.816-1.84-.816-.56 0-1.022.128-1.384.384-.363.25-.632.6-.808 1.048-.176.443-.264.957-.264 1.544 0 .907.208 1.632.624 2.176.416.544 1.026.816 1.832.816zm9.334 1.568c-.598 0-1.099-.096-1.504-.288a2.845 2.845 0 0 1-.992-.752 3.61 3.61 0 0 1-.576-1.024 5.258 5.258 0 0 1-.272-1.08 6.972 6.972 0 0 1-.072-.928v-4.8h1.696v4.248c0 .336.026.683.08 1.04.058.352.165.68.32.984.16.304.381.55.664.736.288.187.661.28 1.12.28.298 0 .581-.048.848-.144.266-.101.498-.261.696-.48.202-.219.36-.507.472-.864.117-.357.176-.792.176-1.304l1.04.392c0 .784-.147 1.477-.44 2.08a3.317 3.317 0 0 1-1.264 1.4c-.55.336-1.214.504-1.992.504zM41.61 55v-2.496h-.2V46.36h1.688V55H41.61zm12.039 0a7.156 7.156 0 0 1-1.6.136 3.62 3.62 0 0 1-1.4-.304c-.411-.187-.72-.48-.928-.88a2.574 2.574 0 0 1-.304-1.088c-.011-.373-.016-.795-.016-1.264v-7.64h1.68v7.56c0 .347.002.648.008.904.01.256.066.472.168.648.192.33.496.52.912.568.421.043.914.024 1.48-.056V55zm-5.904-7.296V46.36h5.904v1.344h-5.904zm11.167 7.536c-.864 0-1.614-.195-2.248-.584a3.936 3.936 0 0 1-1.472-1.608c-.342-.688-.512-1.48-.512-2.376 0-.901.176-1.693.528-2.376a3.87 3.87 0 0 1 1.48-1.6c.634-.384 1.376-.576 2.224-.576.864 0 1.613.195 2.248.584.634.39 1.125.925 1.472 1.608.346.683.52 1.47.52 2.36 0 .901-.176 1.696-.528 2.384a3.935 3.935 0 0 1-1.472 1.608c-.635.384-1.382.576-2.24.576zm0-1.576c.826 0 1.442-.277 1.848-.832.41-.56.616-1.28.616-2.16 0-.901-.208-1.621-.624-2.16-.411-.544-1.024-.816-1.84-.816-.56 0-1.022.128-1.384.384-.363.25-.632.6-.808 1.048-.176.443-.264.957-.264 1.544 0 .907.208 1.632.624 2.176.416.544 1.026.816 1.832.816zM69.066 55v-8.944c0-.219.008-.45.024-.696a3.14 3.14 0 0 1 .136-.736c.08-.245.21-.47.392-.672.218-.24.458-.41.72-.512.261-.101.52-.16.776-.176.261-.016.501-.024.72-.024h1.088v1.376h-1.008c-.395 0-.69.099-.888.296-.192.192-.288.467-.288.824V55h-1.672zm-1.432-7.296V46.36h5.288v1.344h-5.288zm6.968-2.76V43.32h1.672v1.624h-1.672zm0 10.056v-8.64h1.672V55h-1.672zm10.222 0v-4.248c0-.336-.03-.68-.088-1.032a3.093 3.093 0 0 0-.32-.992 1.878 1.878 0 0 0-.664-.736c-.283-.187-.653-.28-1.112-.28-.299 0-.581.05-.848.152a1.766 1.766 0 0 0-.704.472c-.197.219-.355.507-.472.864-.112.357-.168.792-.168 1.304l-1.04-.392c0-.784.147-1.475.44-2.072a3.306 3.306 0 0 1 1.264-1.408c.55-.336 1.213-.504 1.992-.504.597 0 1.099.096 1.504.288.405.192.733.445.984.76.256.31.45.648.584 1.016.133.368.224.728.272 1.08.048.352.072.661.072.928V55h-1.696zm-6.072 0v-8.64h1.496v2.496h.2V55h-1.696zm13.254.24c-.805 0-1.501-.2-2.088-.6-.581-.4-1.032-.944-1.352-1.632-.314-.693-.472-1.472-.472-2.336 0-.87.16-1.645.48-2.328.32-.688.774-1.23 1.36-1.624.592-.4 1.294-.6 2.104-.6.816 0 1.502.2 2.056.6.56.395.982.936 1.264 1.624.288.688.432 1.464.432 2.328 0 .864-.144 1.64-.432 2.328-.288.688-.712 1.235-1.272 1.64-.56.4-1.253.6-2.08.6zm.232-1.512c.55 0 .998-.13 1.344-.392.347-.261.6-.621.76-1.08.16-.459.24-.987.24-1.584 0-.597-.082-1.125-.248-1.584-.16-.459-.41-.816-.752-1.072-.336-.256-.765-.384-1.288-.384-.554 0-1.01.136-1.368.408a2.439 2.439 0 0 0-.8 1.096c-.17.459-.256.97-.256 1.536 0 .57.086 1.088.256 1.552.176.459.438.824.784 1.096.352.272.795.408 1.328.408zM94.582 55v-6.216h-.192V43.48h1.68V55h-1.488zm12.034 0a7.155 7.155 0 0 1-1.6.136 3.62 3.62 0 0 1-1.4-.304 1.907 1.907 0 0 1-.928-.88 2.569 2.569 0 0 1-.304-1.088 43.47 43.47 0 0 1-.016-1.264v-7.64h1.68v7.56c0 .347.003.648.008.904.011.256.067.472.168.648.192.33.496.52.912.568.421.043.915.024 1.48-.056V55zm-5.904-7.296V46.36h5.904v1.344h-5.904zM114.581 55v-4.248c0-.336-.029-.68-.088-1.032a3.086 3.086 0 0 0-.32-.992 1.873 1.873 0 0 0-.664-.736c-.282-.187-.653-.28-1.112-.28-.298 0-.581.05-.848.152a1.773 1.773 0 0 0-.704.472c-.197.219-.354.507-.472.864-.112.357-.168.792-.168 1.304l-1.04-.392c0-.784.147-1.475.44-2.072a3.312 3.312 0 0 1 1.264-1.408c.55-.336 1.214-.504 1.992-.504.598 0 1.099.096 1.504.288.406.192.734.445.984.76.256.31.451.648.584 1.016.134.368.224.728.272 1.08.048.352.072.661.072.928V55h-1.696zm-6.072 0V43.48h1.496v6.216h.2V55h-1.696zm13.764.24c-.858 0-1.613-.187-2.264-.56a3.987 3.987 0 0 1-1.512-1.576c-.357-.677-.536-1.461-.536-2.352 0-.944.176-1.763.528-2.456a3.92 3.92 0 0 1 1.488-1.608c.635-.379 1.374-.568 2.216-.568.88 0 1.63.205 2.248.616.619.405 1.08.984 1.384 1.736.31.752.432 1.645.368 2.68h-1.672v-.608c-.01-1.003-.202-1.744-.576-2.224-.368-.48-.93-.72-1.688-.72-.837 0-1.466.264-1.888.792-.421.528-.632 1.29-.632 2.288 0 .95.211 1.685.632 2.208.422.517 1.03.776 1.824.776.523 0 .974-.117 1.352-.352.384-.24.683-.581.896-1.024l1.64.52c-.336.773-.845 1.373-1.528 1.8a4.252 4.252 0 0 1-2.28.632zm-3.08-4.088v-1.304h6.168v1.304h-6.168zm16.214 4.088c-.826 0-1.52-.2-2.08-.6-.56-.405-.984-.952-1.272-1.64-.288-.688-.432-1.464-.432-2.328 0-.864.142-1.64.424-2.328.288-.688.71-1.23 1.264-1.624.56-.4 1.248-.6 2.064-.6.811 0 1.51.2 2.096.6a3.86 3.86 0 0 1 1.368 1.624c.32.683.48 1.459.48 2.328 0 .864-.16 1.643-.48 2.336a3.873 3.873 0 0 1-1.352 1.632c-.581.4-1.274.6-2.08.6zm-4.064-.24V43.48h1.68v5.304h-.192V55h-1.488zm3.832-1.272c.534 0 .974-.136 1.32-.408.352-.272.614-.637.784-1.096.176-.464.264-.981.264-1.552 0-.565-.088-1.077-.264-1.536a2.377 2.377 0 0 0-.792-1.096c-.357-.272-.813-.408-1.368-.408-.522 0-.954.128-1.296.384-.336.256-.586.613-.752 1.072-.16.459-.24.987-.24 1.584 0 .597.08 1.125.24 1.584.16.459.414.819.76 1.08.347.261.795.392 1.344.392zm9.823 1.512c-.859 0-1.614-.187-2.264-.56a3.973 3.973 0 0 1-1.512-1.576c-.358-.677-.536-1.461-.536-2.352 0-.944.176-1.763.528-2.456a3.908 3.908 0 0 1 1.488-1.608c.634-.379 1.373-.568 2.216-.568.88 0 1.629.205 2.248.616.618.405 1.08.984 1.384 1.736.309.752.432 1.645.368 2.68h-1.672v-.608c-.011-1.003-.203-1.744-.576-2.224-.368-.48-.931-.72-1.688-.72-.838 0-1.467.264-1.888.792-.422.528-.632 1.29-.632 2.288 0 .95.21 1.685.632 2.208.421.517 1.029.776 1.824.776.522 0 .973-.117 1.352-.352.384-.24.682-.581.896-1.024l1.64.52a3.898 3.898 0 0 1-1.528 1.8 4.256 4.256 0 0 1-2.28.632zm-3.08-4.088v-1.304h6.168v1.304h-6.168zm12.179 4.08c-1.051 0-1.907-.232-2.568-.696-.662-.464-1.067-1.117-1.216-1.96l1.712-.264c.106.448.352.803.736 1.064.389.256.872.384 1.448.384.522 0 .93-.107 1.224-.32.298-.213.448-.507.448-.88 0-.219-.054-.395-.16-.528-.102-.139-.318-.27-.648-.392a18.47 18.47 0 0 0-1.512-.456c-.742-.192-1.331-.397-1.768-.616-.432-.224-.742-.483-.928-.776-.182-.299-.272-.659-.272-1.08 0-.523.138-.979.416-1.368.277-.39.666-.69 1.168-.904.506-.213 1.098-.32 1.776-.32.661 0 1.25.104 1.768.312a3.11 3.11 0 0 1 1.256.888c.32.379.512.824.576 1.336l-1.712.312a1.412 1.412 0 0 0-.584-.984c-.331-.24-.76-.37-1.288-.392-.507-.021-.918.064-1.232.256-.315.187-.472.445-.472.776a.71.71 0 0 0 .176.488c.122.133.357.261.704.384.346.123.858.27 1.536.44.725.187 1.301.395 1.728.624.426.224.73.493.912.808.186.31.28.685.28 1.128 0 .853-.312 1.523-.936 2.008-.619.485-1.475.728-2.568.728zM164.395 55a7.16 7.16 0 0 1-1.6.136 3.616 3.616 0 0 1-1.4-.304 1.907 1.907 0 0 1-.928-.88 2.569 2.569 0 0 1-.304-1.088 43.47 43.47 0 0 1-.016-1.264v-7.64h1.68v7.56c0 .347.002.648.008.904.01.256.066.472.168.648.192.33.496.52.912.568.421.043.914.024 1.48-.056V55zm-5.904-7.296V46.36h5.904v1.344h-5.904zM17.12 77V65.48h4.656c.112 0 .25.005.416.016.165.005.323.021.472.048.64.101 1.173.32 1.6.656.432.336.755.76.968 1.272.213.512.32 1.077.32 1.696a4.39 4.39 0 0 1-.32 1.704 3.088 3.088 0 0 1-.968 1.272c-.427.336-.96.555-1.6.656-.15.021-.31.037-.48.048-.165.01-.301.016-.408.016h-2.984V77H17.12zm1.672-5.72h2.92c.107 0 .224-.005.352-.016.133-.01.259-.03.376-.056.341-.08.616-.227.824-.44.208-.219.357-.47.448-.752a2.687 2.687 0 0 0 0-1.688 1.87 1.87 0 0 0-.448-.744 1.613 1.613 0 0 0-.824-.448 2.05 2.05 0 0 0-.376-.064 4.25 4.25 0 0 0-.352-.016h-2.92v4.224zm8.6 5.72V65.24h1.671V77h-1.672zm6.594.24c-.64 0-1.176-.117-1.608-.352a2.508 2.508 0 0 1-.984-.944 2.63 2.63 0 0 1-.328-1.296c0-.437.077-.821.232-1.152.154-.33.384-.61.688-.84a3.68 3.68 0 0 1 1.12-.568c.384-.112.818-.21 1.304-.296.485-.085.994-.165 1.528-.24l1.6-.224-.608.336c.01-.677-.134-1.179-.432-1.504-.294-.33-.8-.496-1.52-.496a2.5 2.5 0 0 0-1.248.32c-.379.208-.643.555-.792 1.04l-1.56-.48c.213-.741.618-1.33 1.216-1.768.602-.437 1.402-.656 2.4-.656.773 0 1.445.133 2.016.4.576.261.997.677 1.264 1.248.138.283.224.581.256.896.032.315.048.653.048 1.016V77h-1.48v-1.976l.288.256c-.358.661-.814 1.155-1.368 1.48-.55.32-1.227.48-2.032.48zm.296-1.368c.474 0 .882-.083 1.224-.248a2.41 2.41 0 0 0 .824-.648c.208-.261.344-.533.408-.816.09-.256.141-.544.152-.864.016-.32.024-.576.024-.768l.544.2-1.44.216c-.432.064-.824.128-1.176.192-.347.059-.656.13-.928.216-.23.08-.435.176-.616.288a1.411 1.411 0 0 0-.424.408 1.07 1.07 0 0 0-.152.584c0 .224.056.432.168.624.112.187.282.336.512.448.229.112.522.168.88.168zM44.43 77.24c-.885 0-1.637-.197-2.256-.592a3.87 3.87 0 0 1-1.424-1.624c-.325-.688-.49-1.47-.496-2.344.005-.89.176-1.677.512-2.36a3.852 3.852 0 0 1 1.44-1.616c.624-.39 1.373-.584 2.248-.584.944 0 1.75.235 2.416.704.672.47 1.115 1.112 1.328 1.928l-1.664.48c-.165-.485-.437-.861-.816-1.128a2.13 2.13 0 0 0-1.288-.408c-.55 0-1 .13-1.352.392a2.265 2.265 0 0 0-.784 1.056c-.17.448-.259.96-.264 1.536.005.89.208 1.61.608 2.16.405.55 1.003.824 1.792.824.539 0 .973-.123 1.304-.368.336-.25.592-.608.768-1.072l1.696.4c-.283.843-.75 1.49-1.4 1.944-.65.448-1.44.672-2.368.672zm9.075 0c-.858 0-1.613-.187-2.264-.56a3.982 3.982 0 0 1-1.512-1.576c-.357-.677-.536-1.461-.536-2.352 0-.944.176-1.763.528-2.456a3.912 3.912 0 0 1 1.488-1.608c.635-.379 1.374-.568 2.216-.568.88 0 1.63.205 2.248.616.619.405 1.08.984 1.384 1.736.31.752.432 1.645.368 2.68h-1.672v-.608c-.01-1.003-.202-1.744-.576-2.224-.368-.48-.93-.72-1.688-.72-.837 0-1.466.264-1.888.792-.421.528-.632 1.29-.632 2.288 0 .95.211 1.685.632 2.208.422.517 1.03.776 1.824.776.523 0 .974-.117 1.352-.352.384-.24.683-.581.896-1.024l1.64.52c-.336.773-.845 1.373-1.528 1.8a4.255 4.255 0 0 1-2.28.632zm-3.08-4.088v-1.304h6.168v1.304h-6.168zM229.775 123v-11.52h1.736l3.984 8.16 3.984-8.16h1.736V123h-1.8v-7.384L235.879 123h-.768l-3.528-7.384V123h-1.808zm17.583.24c-.864 0-1.618-.195-2.264-.584a4.014 4.014 0 0 1-1.504-1.608c-.352-.688-.528-1.477-.528-2.368 0-.907.182-1.701.544-2.384a4.014 4.014 0 0 1 1.512-1.6c.646-.384 1.392-.576 2.24-.576.87 0 1.627.195 2.272.584a3.99 3.99 0 0 1 1.504 1.616c.358.683.536 1.469.536 2.36 0 .896-.181 1.688-.544 2.376a4 4 0 0 1-1.504 1.608c-.645.384-1.4.576-2.264.576zm0-1.808c.768 0 1.339-.256 1.712-.768.374-.512.56-1.173.56-1.984 0-.837-.189-1.504-.568-2-.378-.501-.946-.752-1.704-.752-.517 0-.944.117-1.28.352-.33.229-.576.552-.736.968-.16.411-.24.888-.24 1.432 0 .837.19 1.507.568 2.008.384.496.947.744 1.688.744zM259.489 123v-4.16c0-.272-.019-.573-.056-.904a3.103 3.103 0 0 0-.264-.952 1.802 1.802 0 0 0-.608-.76c-.267-.197-.629-.296-1.088-.296-.245 0-.488.04-.728.12-.24.08-.459.219-.656.416-.192.192-.347.459-.464.8-.117.336-.176.768-.176 1.296l-1.144-.488c0-.736.141-1.403.424-2a3.403 3.403 0 0 1 1.264-1.424c.555-.357 1.237-.536 2.048-.536.64 0 1.168.107 1.584.32.416.213.747.485.992.816.245.331.427.683.544 1.056.117.373.192.728.224 1.064.037.331.056.6.056.808V123h-1.952zm-5.992 0v-8.64h1.72v2.68h.232V123h-1.952zm12.528.24c-.624 0-1.152-.117-1.584-.352a2.487 2.487 0 0 1-.984-.952 2.642 2.642 0 0 1-.328-1.304c0-.416.069-.789.208-1.12.138-.336.352-.624.64-.864.288-.245.661-.445 1.12-.6.346-.112.752-.213 1.216-.304.469-.091.976-.173 1.52-.248.549-.08 1.122-.165 1.72-.256l-.688.392c.005-.597-.128-1.037-.4-1.32-.272-.283-.731-.424-1.376-.424-.39 0-.766.091-1.128.272-.363.181-.616.493-.76.936l-1.76-.552a3.265 3.265 0 0 1 1.216-1.76c.602-.443 1.413-.664 2.432-.664.768 0 1.442.125 2.024.376a2.517 2.517 0 0 1 1.304 1.232c.154.304.248.616.28.936.032.315.048.659.048 1.032V123h-1.688v-1.872l.28.304c-.39.624-.846 1.083-1.368 1.376-.518.288-1.166.432-1.944.432zm.384-1.536c.437 0 .81-.077 1.12-.232a2.2 2.2 0 0 0 .736-.568c.186-.224.312-.435.376-.632.101-.245.157-.525.168-.84.016-.32.024-.579.024-.776l.592.176a166.2 166.2 0 0 0-1.496.24c-.416.069-.774.136-1.072.2a6.795 6.795 0 0 0-.792.2c-.224.08-.414.173-.568.28a1.232 1.232 0 0 0-.36.368.96.96 0 0 0-.12.488c0 .213.053.403.16.568.106.16.261.288.464.384.208.096.464.144.768.144zm9.834 1.536c-1.066 0-1.933-.24-2.6-.72-.666-.48-1.072-1.155-1.216-2.024l1.968-.304c.102.427.326.763.672 1.008.347.245.784.368 1.312.368.464 0 .822-.091 1.072-.272a.892.892 0 0 0 .384-.76c0-.197-.048-.355-.144-.472-.09-.123-.293-.24-.608-.352a19.365 19.365 0 0 0-1.448-.424c-.725-.192-1.301-.397-1.728-.616-.426-.224-.733-.488-.92-.792-.186-.304-.28-.672-.28-1.104 0-.539.142-1.008.424-1.408.283-.4.678-.707 1.184-.92.507-.219 1.104-.328 1.792-.328.672 0 1.267.104 1.784.312.523.208.944.504 1.264.888.32.384.518.835.592 1.352l-1.968.352a1.238 1.238 0 0 0-.504-.872c-.282-.213-.661-.333-1.136-.36-.453-.027-.818.043-1.096.208-.277.16-.416.387-.416.68 0 .165.056.307.168.424.112.117.336.235.672.352.342.117.848.261 1.52.432.688.176 1.238.379 1.648.608.416.224.715.493.896.808.187.315.28.696.28 1.144 0 .869-.317 1.552-.952 2.048-.629.496-1.501.744-2.616.744zm9.553 0c-.843 0-1.55-.2-2.12-.6-.571-.4-1-.944-1.288-1.632-.288-.693-.432-1.469-.432-2.328 0-.869.144-1.648.432-2.336.288-.688.709-1.229 1.264-1.624.56-.4 1.25-.6 2.072-.6.816 0 1.522.2 2.12.6a3.938 3.938 0 0 1 1.4 1.624c.33.683.496 1.461.496 2.336 0 .864-.163 1.64-.488 2.328a3.976 3.976 0 0 1-1.376 1.632c-.592.4-1.286.6-2.08.6zm-4.168-.24v-11.52h1.944v5.456h-.24V123h-1.704zm3.872-1.488c.501 0 .914-.125 1.24-.376.325-.251.565-.589.72-1.016.16-.432.24-.912.24-1.44 0-.523-.08-.997-.24-1.424a2.192 2.192 0 0 0-.744-1.024c-.336-.256-.763-.384-1.28-.384-.491 0-.891.12-1.2.36-.31.235-.539.565-.688.992-.144.421-.216.915-.216 1.48 0 .56.072 1.053.216 1.48.149.427.381.76.696 1 .32.235.738.352 1.256.352zm8.499 1.728c-.624 0-1.152-.117-1.584-.352a2.487 2.487 0 0 1-.984-.952 2.642 2.642 0 0 1-.328-1.304c0-.416.069-.789.208-1.12.139-.336.352-.624.64-.864.288-.245.661-.445 1.12-.6.347-.112.752-.213 1.216-.304.469-.091.976-.173 1.52-.248.549-.08 1.123-.165 1.72-.256l-.688.392c.005-.597-.128-1.037-.4-1.32-.272-.283-.731-.424-1.376-.424-.389 0-.765.091-1.128.272-.363.181-.616.493-.76.936l-1.76-.552a3.27 3.27 0 0 1 1.216-1.76c.603-.443 1.413-.664 2.432-.664.768 0 1.443.125 2.024.376a2.513 2.513 0 0 1 1.304 1.232c.155.304.248.616.28.936.032.315.048.659.048 1.032V123h-1.688v-1.872l.28.304c-.389.624-.845 1.083-1.368 1.376-.517.288-1.165.432-1.944.432zm.384-1.536c.437 0 .811-.077 1.12-.232a2.19 2.19 0 0 0 .736-.568c.187-.224.312-.435.376-.632.101-.245.157-.525.168-.84.016-.32.024-.579.024-.776l.592.176c-.581.091-1.08.171-1.496.24-.416.069-.773.136-1.072.2a6.795 6.795 0 0 0-.792.2c-.224.08-.413.173-.568.28a1.232 1.232 0 0 0-.36.368.96.96 0 0 0-.12.488c0 .213.053.403.16.568.107.16.261.288.464.384.208.096.464.144.768.144zm6.819 1.296v-1.976h1.976V123h-1.976zm3.819 0 3.632-11.52h2.824l3.632 11.52h-1.984l-3.296-10.336h.432L307.005 123h-1.984zm2.024-2.496v-1.8h6.048v1.8h-6.048zm9.751 2.496v-11.52h1.928V123h-1.928zM228.655 124h91.349v.4h-91.349v-.4z" fill="#fff"/>
</svg>
