<svg width="25" height="23" viewBox="0 0 25 23" fill="none" xmlns="http://www.w3.org/2000/svg">
<path d="M24.34 0.423811C23.817 -0.00831443 23.0981 -0.119513 22.4682 0.134231L1.13837 8.7139C0.200095 9.09868 -0.247426 10.1685 0.138768 11.1032C0.338514 11.5867 0.736117 11.9619 1.23138 12.1344L5.83287 13.7283L8.3266 21.9431C8.33162 21.9598 8.34702 21.97 8.35349 21.9861C8.37928 22.0516 8.41699 22.1119 8.46458 22.1639C8.48231 22.1848 8.50164 22.2044 8.52228 22.2225C8.5844 22.2739 8.65656 22.3119 8.73416 22.3341C8.746 22.3375 8.75392 22.348 8.76598 22.3508L8.77296 22.3505L8.77645 22.3519C8.81619 22.3608 8.85674 22.365 8.89736 22.3647C8.95047 22.3628 9.00315 22.3537 9.05372 22.3375C9.06353 22.3349 9.07341 22.3356 9.08301 22.3324C9.1694 22.3021 9.24744 22.2522 9.31102 22.1866C9.31843 22.1792 9.32969 22.1779 9.33681 22.1701L12.9245 18.226L18.1585 22.2639C18.4765 22.5116 18.8686 22.6462 19.2722 22.6462C20.1453 22.646 20.899 22.0367 21.0789 21.1855L24.9631 2.18677C25.0977 1.52957 24.8581 0.851954 24.34 0.423811ZM9.62869 15.2862L8.78677 19.3626L7.03098 13.577L15.7392 9.059L9.79029 14.9862C9.70804 15.0682 9.65187 15.1725 9.62869 15.2862ZM19.9129 20.9469C19.8672 21.1652 19.7109 21.3443 19.5002 21.4195C19.2942 21.4984 19.0617 21.4632 18.8886 21.3268L13.2176 16.9519C12.9721 16.7625 12.6216 16.7932 12.4131 17.0225L9.91825 19.7651L10.7587 15.6997L19.3165 7.17218C19.5491 6.94087 19.5494 6.56558 19.3173 6.33391C19.1337 6.15054 18.8518 6.10725 18.6212 6.22699L6.28388 12.6281L1.62084 11.0132C1.36667 10.9298 1.19381 10.6948 1.19069 10.4282C1.17841 10.1598 1.3379 9.91297 1.58829 9.81314L22.9147 1.23463C23.1374 1.14045 23.3945 1.1799 23.5785 1.33657C23.7616 1.48382 23.8457 1.72134 23.7959 1.95047L19.9129 20.9469Z" fill="black"/>
</svg>
