<svg width="11" height="23" viewBox="0 0 11 23" fill="none" xmlns="http://www.w3.org/2000/svg">
<path d="M4.27778 17.2542C3.94167 17.2542 3.66667 17.4969 3.66667 17.7934V19.9502H0.611111C0.275 19.9502 0 20.1928 0 20.4894V22.107C0 22.4035 0.275 22.6462 0.611111 22.6462H10.3889C10.725 22.6462 11 22.4035 11 22.107V20.4894C11 20.1928 10.725 19.9502 10.3889 19.9502H7.33333V17.7934C7.33333 17.4969 7.05833 17.2542 6.72222 17.2542H6.11111V16.1435C8.855 15.8739 11 13.8142 11 11.3231V4.85275C11 2.17834 8.53111 0 5.5 0C2.46889 0 0 2.17834 0 4.85275V11.3231C0 13.8142 2.145 15.8739 4.88889 16.1435V17.2542H4.27778ZM1.27111 11.8623H3.05556C3.39167 11.8623 3.66667 11.6196 3.66667 11.3231C3.66667 11.0265 3.39167 10.7839 3.05556 10.7839H1.22222V9.7055H3.05556C3.39167 9.7055 3.66667 9.46286 3.66667 9.1663C3.66667 8.86974 3.39167 8.62711 3.05556 8.62711H1.22222V7.54872H3.05556C3.39167 7.54872 3.66667 7.30608 3.66667 7.00952C3.66667 6.71297 3.39167 6.47033 3.05556 6.47033H1.22222V5.39194H3.05556C3.39167 5.39194 3.66667 5.1493 3.66667 4.85275C3.66667 4.55619 3.39167 4.31355 3.05556 4.31355H1.27111C1.57056 2.48568 3.34889 1.07839 5.5 1.07839C7.65111 1.07839 9.42944 2.48568 9.72889 4.31355H7.94444C7.60833 4.31355 7.33333 4.55619 7.33333 4.85275C7.33333 5.1493 7.60833 5.39194 7.94444 5.39194H9.77778V6.47033H7.94444C7.60833 6.47033 7.33333 6.71297 7.33333 7.00952C7.33333 7.30608 7.60833 7.54872 7.94444 7.54872H9.77778V8.62711H7.94444C7.60833 8.62711 7.33333 8.86974 7.33333 9.1663C7.33333 9.46286 7.60833 9.7055 7.94444 9.7055H9.77778V10.7839H7.94444C7.60833 10.7839 7.33333 11.0265 7.33333 11.3231C7.33333 11.6196 7.60833 11.8623 7.94444 11.8623H9.72889C9.42944 13.6901 7.65111 15.0974 5.5 15.0974C3.34889 15.0974 1.57056 13.6901 1.27111 11.8623ZM6.11111 18.3326V20.4894C6.11111 20.7859 6.38611 21.0286 6.72222 21.0286H9.77778V21.5678H1.22222V21.0286H4.27778C4.61389 21.0286 4.88889 20.7859 4.88889 20.4894V18.3326H6.11111Z" fill="white"/>
</svg>
