<svg width="20" height="20" viewBox="0 0 20 20" fill="none" xmlns="http://www.w3.org/2000/svg">
    <path fill-rule="evenodd" clip-rule="evenodd" d="M4.395 8.438c-.228.498-.228 1.063-.228 2.195v3.534c0 1.571 0 2.357.488 2.845.423.423 1.071.48 2.262.487V13.5a2 2 0 0 1 2-2h2.166a2 2 0 0 1 2 2v3.999c1.191-.008 1.839-.064 2.262-.487.488-.488.488-1.274.488-2.845v-3.534c0-1.132 0-1.697-.228-2.195-.23-.497-.659-.865-1.518-1.601l-.833-.715c-1.553-1.33-2.33-1.996-3.254-1.996-.925 0-1.701.665-3.254 1.996l-.833.715c-.86.736-1.289 1.104-1.518 1.601zm6.688 9.062v-4H8.917v4h2.166z" fill="#818181"/>
</svg>
