<svg width="24" height="24" viewBox="0 0 24 24" fill="none" xmlns="http://www.w3.org/2000/svg">
    <path d="m8.96 16 .835-.55L9.5 15H8.96v1zm2.64 4-.835.55.835 1.266.835-1.265L11.6 20zm2.64-4v-1h-.54l-.295.45.834.55zM3 7a2 2 0 0 1 2-2V3a4 4 0 0 0-4 4h2zm0 6V7H1v6h2zm2 2a2 2 0 0 1-2-2H1a4 4 0 0 0 4 4v-2zm3.96 0H5v2h3.96v-2zm3.474 4.45-2.639-4-1.67 1.1 2.64 4 1.67-1.1zm.97-4-2.639 4 1.67 1.1 2.639-4-1.67-1.1zM19 15h-4.76v2H19v-2zm2-2a2 2 0 0 1-2 2v2a4 4 0 0 0 4-4h-2zm0-6v6h2V7h-2zm-2-2a2 2 0 0 1 2 2h2a4 4 0 0 0-4-4v2zM5 5h14V3H5v2zM6.912 7.527c.291-.751.437-1.127.688-1.127.251 0 .397.376.689 1.127l.014.035c.164.425.247.637.415.766.168.129.388.15.83.19l.08.008c.721.066 1.082.1 1.16.337.076.237-.192.489-.728.993l-.179.168c-.271.255-.407.382-.47.55a.786.786 0 0 0-.03.095c-.04.174-.001.359.078.729l.025.115c.146.68.22 1.02.092 1.166a.37.37 0 0 1-.179.114c-.184.052-.445-.168-.968-.608-.343-.289-.515-.433-.712-.466a.718.718 0 0 0-.234 0c-.197.033-.368.177-.712.466-.522.44-.784.66-.968.608a.37.37 0 0 1-.178-.114c-.128-.146-.055-.486.091-1.166l.025-.115c.08-.37.12-.555.078-.73a.785.785 0 0 0-.03-.095c-.063-.167-.198-.294-.47-.55l-.179-.167c-.536-.504-.804-.756-.727-.993.078-.237.439-.27 1.16-.337l.08-.008c.441-.04.662-.061.83-.19.168-.129.25-.341.415-.766l.014-.035z" fill="#686868"/>
    <rect x="13.2" y="8" width="6.4" height=".8" rx=".4" fill="#686868"/>
    <rect x="13.2" y="9.6" width="6.4" height=".8" rx=".4" fill="#686868"/>
    <rect x="16.4" y="11.2" width="3.2" height=".8" rx=".4" fill="#686868"/>
</svg>
