<svg width="26" height="32" viewBox="0 0 26 32" fill="none" xmlns="http://www.w3.org/2000/svg">
    <circle cx="12" cy="30" r="2" fill="#fff"/>
    <path fill-rule="evenodd" clip-rule="evenodd" d="M5 4a3 3 0 0 0-3 3v7.2a3 3 0 0 0 3 3h4.657l2.903 4.4 2.903-4.4H21a3 3 0 0 0 3-3V7a3 3 0 0 0-3-3H5zm2.403 3.88c.32-.826.481-1.24.757-1.24s.437.414.758 1.24l.015.039c.181.466.272.7.457.842.185.142.427.164.912.209l.088.008c.794.074 1.191.11 1.276.371.085.261-.21.538-.8 1.092l-.196.185c-.299.28-.448.42-.518.605a.85.85 0 0 0-.032.105c-.046.191-.002.395.085.802l.028.126c.16.748.24 1.122.1 1.283a.406.406 0 0 1-.196.125c-.202.057-.49-.185-1.065-.668-.377-.318-.566-.477-.783-.513a.788.788 0 0 0-.257 0c-.217.036-.406.195-.783.513-.575.483-.863.725-1.065.668a.406.406 0 0 1-.196-.125c-.14-.161-.06-.535.1-1.283l.027-.126c.088-.407.132-.61.086-.802a.86.86 0 0 0-.032-.105c-.07-.184-.22-.325-.518-.605l-.197-.185c-.59-.554-.884-.831-.8-1.092.086-.26.483-.297 1.277-.37l.088-.009c.485-.045.727-.067.912-.21.185-.141.276-.375.457-.841l.015-.039zm7.357.52a.44.44 0 0 0 0 .88h6.16a.44.44 0 0 0 0-.88h-6.16zm-.44 2.2a.44.44 0 0 1 .44-.44h6.16a.44.44 0 1 1 0 .88h-6.16a.44.44 0 0 1-.44-.44zm3.96 1.32a.44.44 0 0 0 0 .88h2.64a.44.44 0 0 0 0-.88h-2.64z" fill="#fff"/>
</svg>
