<svg width="28" height="28" viewBox="0 0 28 28" fill="none" xmlns="http://www.w3.org/2000/svg">
    <path fill-rule="evenodd" clip-rule="evenodd" d="M10.392 13.675c-.272-.193-.408-.29-.544-.301a.5.5 0 0 0-.333.09c-.11.08-.18.232-.316.537l-3.871 8.65c-.245.548-.368.822-.316.998a.5.5 0 0 0 .31.33c.172.063.453-.042 1.015-.251l7.383-2.75c.104-.038.155-.057.209-.065a.497.497 0 0 1 .142 0c.053.008.104.027.208.066l7.383 2.749c.562.21.843.314 1.016.251a.5.5 0 0 0 .31-.33c.051-.176-.071-.45-.316-.998l-3.872-8.65c-.137-.305-.205-.457-.315-.536a.5.5 0 0 0-.334-.091c-.135.011-.272.108-.544.301l-3.029 2.149a1 1 0 0 1-1.157 0l-3.029-2.149zm.045-2.439a.019.019 0 0 0 .006.023l3.094 2.195c.166.118.25.177.34.2a.5.5 0 0 0 .245 0c.09-.023.174-.082.34-.2l3.094-2.195a.018.018 0 0 0 .007-.022l-2.833-6.33c-.232-.517-.347-.775-.508-.855a.5.5 0 0 0-.444 0c-.161.08-.277.338-.509.856l-2.832 6.328z" fill="#000"/>
</svg>
