<svg width="13" height="14" viewBox="0 0 13 14" fill="none" xmlns="http://www.w3.org/2000/svg">
    <path d="M9.117 11.875a7.495 7.495 0 0 1-5.295-2.202 7.525 7.525 0 0 1-2.197-5.305 2.236 2.236 0 0 1 2.238-2.242c.126-.002.251.01.375.033.119.018.236.047.35.088a.486.486 0 0 1 .316.366l.667 2.925a.488.488 0 0 1-.127.448c-.063.068-.068.073-.666.385a4.826 4.826 0 0 0 2.37 2.384c.315-.605.32-.61.388-.673a.486.486 0 0 1 .448-.127l2.919.668a.486.486 0 0 1 .35.317 2.12 2.12 0 0 1 .122.727 2.244 2.244 0 0 1-2.258 2.208z" fill="#fff"/>
</svg>
