<svg width="13" height="14" viewBox="0 0 13 14" fill="none" xmlns="http://www.w3.org/2000/svg">
    <path d="M10.834 7a4.333 4.333 0 1 1-8.667 0 4.333 4.333 0 0 1 8.667 0z" fill="#fff"/>
    <path d="M8.125 7c0 2.393-.727 4.333-1.625 4.333-.897 0-1.625-1.94-1.625-4.333 0-2.393.728-4.333 1.625-4.333.898 0 1.625 1.94 1.625 4.333z" fill="#fff"/>
    <path d="M10.834 7A4.333 4.333 0 0 1 6.5 11.333M10.834 7A4.333 4.333 0 0 0 6.5 2.667M10.834 7H2.167M6.5 11.333A4.333 4.333 0 0 1 2.167 7M6.5 11.333c.898 0 1.625-1.94 1.625-4.333 0-2.393-.727-4.333-1.625-4.333m0 8.666c-.897 0-1.625-1.94-1.625-4.333 0-2.393.728-4.333 1.625-4.333M2.167 7A4.333 4.333 0 0 1 6.5 2.667m3.56 6.54c-.392-.177-.913-.321-1.52-.423a12.537 12.537 0 0 0-1.968-.159 12.811 12.811 0 0 0-1.984.139c-.617.095-1.153.234-1.564.407m7.036-4.378c-.392.176-.913.321-1.52.422-.606.102-1.28.156-1.968.16a12.81 12.81 0 0 1-1.984-.14c-.617-.094-1.153-.233-1.564-.406" stroke="#fff" stroke-width=".5"/>
</svg>
