<svg width="43" height="42" viewBox="0 0 43 42" fill="none" xmlns="http://www.w3.org/2000/svg">
    <path d="M34 16.397c0 8.97-9.318 18.294-11.864 20.674a.92.92 0 0 1-1.272 0C18.318 34.69 9 25.367 9 16.397 9 9.55 14.596 4 21.5 4S34 9.55 34 16.397z" fill="#ED9526"/>
    <path d="M27.992 14.848h-2.097v7.848h2.097v-7.848zM16.52 14.848h-2.096v7.848h2.096v-7.848zM29.094 13.796H13.375v1.052h15.719v-1.052z" fill="#fff"/>
    <path fill-rule="evenodd" clip-rule="evenodd" d="M24.699 14.852h-6.932v7.841h.845v-3.91c0-.466.377-.844.841-.844h3.56c.464 0 .84.378.84.844v3.91h.846v-7.841zm-5.068 7.841h3.205V18.96H19.63v3.734zm2.39-6.12a.787.787 0 0 1-.785.788.787.787 0 0 1-.786-.788.787.787 0 1 1 1.571 0z" fill="#fff"/>
    <path d="M21.233 9.636a.524.524 0 1 0-.002-1.048.524.524 0 0 0 .002 1.048zM28.719 23H13v1.051h15.719V23zM19.273 12.732h-5.898l1.634-2.33h2.63l1.634 2.33zM29.093 12.732h-5.898l1.634-2.33h2.63l1.634 2.33z" fill="#fff"/>
    <path d="M24.103 12.732h-5.899l2.553-3.094h.956l2.39 3.094z" fill="#fff"/>
</svg>
