<svg width="22" height="22" viewBox="0 0 22 22" fill="none" xmlns="http://www.w3.org/2000/svg">
    <path fill-rule="evenodd" clip-rule="evenodd" d="m11 4.736-4.583 2.75v10.847c0 .507.41.917.916.917h7.334c.506 0 .916-.41.916-.917V7.486L11 4.736zm5.5 2.23-5.5-3.3-5.5 3.3v11.367c0 1.013.82 1.834 1.833 1.834h7.334c1.012 0 1.833-.821 1.833-1.834V6.967z" fill="#fff"/>
    <path d="M11.917 7.333a.917.917 0 1 1-1.834 0 .917.917 0 0 1 1.834 0z" fill="#fff"/>
    <path fill-rule="evenodd" clip-rule="evenodd" d="M11 1.375c.253 0 .458.205.458.458v5.042h-.916V1.833c0-.253.205-.458.458-.458z" fill="#fff"/>
    <path d="m9.59 16.427-.282-.294 3.103-3.226.282.293-3.104 3.227zm2.398.073a.8.8 0 0 1-.425-.117.879.879 0 0 1-.42-.763c0-.16.04-.307.118-.44a.915.915 0 0 1 .31-.32.776.776 0 0 1 .417-.12c.155 0 .297.04.425.12.128.078.23.184.305.318.077.131.115.279.115.442a.883.883 0 0 1-.42.763.801.801 0 0 1-.425.117zm0-.384a.434.434 0 0 0 .237-.068.497.497 0 0 0 .24-.428.48.48 0 0 0-.066-.247.473.473 0 0 0-.174-.18.434.434 0 0 0-.237-.07.434.434 0 0 0-.237.07.496.496 0 0 0-.173.18.48.48 0 0 0-.066.247c0 .09.022.172.066.247a.523.523 0 0 0 .173.18.434.434 0 0 0 .237.07zm-1.976-1.523a.8.8 0 0 1-.425-.117.902.902 0 0 1-.308-.318.892.892 0 0 1-.112-.445c0-.16.039-.306.117-.44a.916.916 0 0 1 .31-.32.777.777 0 0 1 .418-.12c.155 0 .295.04.422.12a.877.877 0 0 1 .423.76.877.877 0 0 1-.423.763.789.789 0 0 1-.422.117zm0-.383a.433.433 0 0 0 .237-.069.497.497 0 0 0 .174-.18.48.48 0 0 0 .065-.248.48.48 0 0 0-.065-.247.473.473 0 0 0-.174-.18.433.433 0 0 0-.237-.069.434.434 0 0 0-.237.069.497.497 0 0 0-.174.18.48.48 0 0 0-.066.247c0 .09.022.172.066.247a.523.523 0 0 0 .174.181.434.434 0 0 0 .237.069z" fill="#fff"/>
</svg>
